<svg xmlns="http://www.w3.org/2000/svg" width="320" height="320" version="1.0" viewBox="0 0 3333.33 3333.33" shape-rendering="geometricPrecision" text-rendering="geometricPrecision" image-rendering="optimizeQuality" fill-rule="evenodd" clip-rule="evenodd"><rect y="-.01" width="3333.33" height="3333.33" rx="560" ry="560" fill="#eee"/><path d="M1594.75 808.33c-197.59 0-376.48 80.09-505.95 209.56-129.45 129.46-209.54 308.37-209.54 505.95 0 197.58 80.09 376.48 209.54 505.95 129.47 129.45 308.37 209.54 505.95 209.54 197.6 0 376.49-80.09 505.95-209.54 129.45-129.47 209.54-308.37 209.54-505.95-.05-9.31-.09-18.82-.55-28.1-7.2-186.42-85.71-354.57-208.99-477.87-129.46-129.45-308.35-209.54-505.95-209.54zm-580.91 134.6c148.68-148.68 354.09-240.65 580.91-240.65 130.77 0 254.43 30.57 364.2 84.96l93.79-162.25 91.55 52.6-21.98 38.07c128.69 83.97 233.54 196.17 308.33 325.7 83.41 144.5 129.48 310.35 129.48 482.47 0 266.54-108.08 507.93-282.76 682.6-163.04 163.03-384.13 268.03-629.58 281.32v114.52h186.78v106.05h-479.59v-106.05h186.76v-114.55c-66.55-3.68-132.5-14.28-196.77-31.5a962.636 962.636 0 01-186.29-71.3l-21.9 37.93-91.55-53.01 93.79-162.44a824.349 824.349 0 01-125.16-102.68c-148.64-148.66-240.63-354.09-240.63-580.91 0-226.83 91.99-432.25 240.63-580.91zm570.44 1402.39c-15.91-.59-31.72-.64-47.62-1.97-109.3-7.64-212.72-36.66-306.1-82.93l-18.89 32.75c51.44 25.61 105.3 45.95 160.63 60.77 72.04 19.3 146.83 29.21 222.46 29.21 237.3 0 452.15-96.19 607.65-251.67 155.48-155.48 251.67-370.33 251.67-607.65 0-153.8-40.91-301.56-114.98-429.87-65.59-113.64-157.25-212.3-269.56-286.66l-19 32.92a824.76 824.76 0 01125.15 102.68c133.32 133.33 221.05 312.31 237.72 511.48 2.1 23.04 2.76 46.31 2.91 69.44 0 226.82-91.99 432.25-240.63 580.91-148.66 148.64-354.08 240.63-580.91 240.63l-10.47-.06z" fill="#37474f" fill-rule="nonzero"/></svg>